<?xml version="1.0" encoding="UTF-8" standalone="no"?>
<!-- Created with Inkscape (http://www.inkscape.org/) -->

<svg
   xmlns:dc="http://purl.org/dc/elements/1.1/"
   xmlns:cc="http://creativecommons.org/ns#"
   xmlns:rdf="http://www.w3.org/1999/02/22-rdf-syntax-ns#"
   xmlns:svg="http://www.w3.org/2000/svg"
   xmlns="http://www.w3.org/2000/svg"
   xmlns:sodipodi="http://sodipodi.sourceforge.net/DTD/sodipodi-0.dtd"
   xmlns:inkscape="http://www.inkscape.org/namespaces/inkscape"
   width="210mm"
   height="297mm"
   viewBox="0 0 744.09448819 1052.3622047"
   id="svg2"
   version="1.1"
   inkscape:version="0.91 r13725"
   sodipodi:docname="setas.svg">
  <defs
     id="defs4" />
  <sodipodi:namedview
     id="base"
     pagecolor="#ffffff"
     bordercolor="#666666"
     borderopacity="1.0"
     inkscape:pageopacity="0.0"
     inkscape:pageshadow="2"
     inkscape:zoom="0.7"
     inkscape:cx="401.9945"
     inkscape:cy="557.75283"
     inkscape:document-units="px"
     inkscape:current-layer="layer1"
     showgrid="false"
     inkscape:window-width="1920"
     inkscape:window-height="1053"
     inkscape:window-x="0"
     inkscape:window-y="0"
     inkscape:window-maximized="1" />
  <metadata
     id="metadata7">
    <rdf:RDF>
      <cc:Work
         rdf:about="">
        <dc:format>image/svg+xml</dc:format>
        <dc:type
           rdf:resource="http://purl.org/dc/dcmitype/StillImage" />
        <dc:title></dc:title>
      </cc:Work>
    </rdf:RDF>
  </metadata>
  <g
     inkscape:label="Layer 1"
     inkscape:groupmode="layer"
     id="layer1">
    <path
       style="fill:#000000;fill-rule:evenodd;stroke:#000000;stroke-width:1px;stroke-linecap:butt;stroke-linejoin:miter;stroke-opacity:1;fill-opacity:1"
       d="m 185.33352,199.00292 c 3.54089,0.46602 66.70036,-25.0823 118.45313,-13.22784 51.75277,11.85446 49.75707,59.86165 109.85905,68.49231 60.10196,8.63064 95.45607,-19.13634 95.45607,-19.13634 l -12.52334,-8.85269 c 0,0 85.72106,-18.59838 82.08697,-18.35622 -3.6341,0.24214 -56.84006,54.77583 -56.84006,54.77583 l -2.79081,-15.45296 c 0,0 -71.07089,41.67278 -110.44021,34.45493 -69.64364,-12.76825 -59.6533,-50.35745 -117.87288,-62.34258 -58.21958,-11.98513 -90.66696,32.01423 -90.66696,32.01423 0,0 15.17055,-16.73494 8.20117,-34.9429 -6.96938,-18.20796 -22.92213,-17.42577 -22.92213,-17.42577 z"
       id="path4136"
       inkscape:connector-curvature="0"
       sodipodi:nodetypes="cssccsccsscsc" />
    <path
       style="fill:#000000;fill-rule:evenodd;stroke:#000000;stroke-width:1px;stroke-linecap:butt;stroke-linejoin:miter;stroke-opacity:1;fill-opacity:1"
       d="M 586.35302,369.34357 C 582.78463,369.491 522.16356,338.39563 469.5579,345.57342 416.95222,352.7512 414.64579,400.74447 354.01275,403.96455 293.37971,407.18463 260.651,376.36661 260.651,376.36661 l 13.26499,-7.69702 c 0,0 -83.71386,-26.19137 -80.116,-25.62512 3.59788,0.56623 51.71265,59.64047 51.71265,59.64047 l 4.16185,-15.14139 c 0,0 67.05848,47.86285 106.91561,44.19542 70.50656,-6.48761 63.91853,-44.81975 122.97678,-51.54923 59.05825,-6.7295 87.43992,39.99583 87.43992,39.99583 0,0 -13.61284,-18.02483 -5.04274,-35.53641 8.57011,-17.51158 24.38896,-15.30559 24.38896,-15.30559 z"
       id="path4136-7"
       inkscape:connector-curvature="0"
       sodipodi:nodetypes="cssccsccsscsc" />
    <path
       style="fill:#000000;fill-rule:evenodd;stroke:#000000;stroke-width:1px;stroke-linecap:butt;stroke-linejoin:miter;stroke-opacity:1;fill-opacity:1"
       d="m 276.7818,690.72759 c 0,0 14.22975,-11.89608 16.09065,-52.06926 1.29551,-27.96738 -10.4807,-31.35411 -9.1929,-68.76216 0.7703,-22.37564 15.3256,-40.79298 15.3256,-40.79298 l -11.11167,4.54568 32.57742,-40.65864 c 0,0 -8.23968,48.41336 -9.7549,47.4032 -1.51523,-1.01015 -4.21392,-9.55311 -4.21392,-9.55311 0,0 -13.36257,25.6124 -13.6804,38.49783 -0.74492,30.20087 12.04983,37.55789 12.67242,64.92768 1.0587,46.54206 -9.26687,71.36151 -9.26687,71.36151 0,0 3.03046,-4.79822 -3.28299,-10.6066 -6.31345,-5.80838 -16.16244,-4.29315 -16.16244,-4.29315 z"
       id="path4153"
       inkscape:connector-curvature="0"
       sodipodi:nodetypes="csscccscsscsc" />
    <path
       style="fill:#000000;fill-rule:evenodd;stroke:#000000;stroke-width:1px;stroke-linecap:butt;stroke-linejoin:miter;stroke-opacity:1;fill-opacity:1"
       d="m 312.7818,690.72758 c 0,0 14.22975,-11.89608 16.09065,-52.06926 1.29551,-27.96738 -10.4807,-31.35411 -9.1929,-68.76215 0.7703,-22.37564 15.3256,-40.79298 15.3256,-40.79298 l -11.11167,4.54568 32.57742,-40.65864 c 0,0 -8.23968,48.41336 -9.7549,47.4032 -1.51523,-1.01015 -4.21392,-9.55311 -4.21392,-9.55311 0,0 -13.36257,25.6124 -13.6804,38.49783 -0.74492,30.20086 12.04983,37.55788 12.67242,64.92767 1.0587,46.54206 -9.26687,71.36151 -9.26687,71.36151 0,0 3.03046,-4.79822 -3.28299,-10.6066 -6.31345,-5.80838 -16.16244,-4.29315 -16.16244,-4.29315 z"
       id="path4153-7"
       inkscape:connector-curvature="0"
       sodipodi:nodetypes="csscccscsscsc" />
    <path
       style="fill:#000000;fill-rule:evenodd;stroke:#000000;stroke-width:1px;stroke-linecap:butt;stroke-linejoin:miter;stroke-opacity:1;fill-opacity:1"
       d="m 352.7818,690.72757 c 0,0 14.22975,-11.89608 16.09065,-52.06926 1.29551,-27.96738 -10.4807,-31.35411 -9.1929,-68.76214 0.7703,-22.37564 15.3256,-40.79298 15.3256,-40.79298 l -11.11167,4.54568 32.57742,-40.65864 c 0,0 -8.23968,48.41336 -9.7549,47.4032 -1.51523,-1.01015 -4.21392,-9.55311 -4.21392,-9.55311 0,0 -13.36257,25.6124 -13.6804,38.49783 -0.74492,30.20085 12.04983,37.55787 12.67242,64.92766 1.0587,46.54206 -9.26687,71.36151 -9.26687,71.36151 0,0 3.03046,-4.79822 -3.28299,-10.6066 -6.31345,-5.80838 -16.16244,-4.29315 -16.16244,-4.29315 z"
       id="path4153-7-6"
       inkscape:connector-curvature="0"
       sodipodi:nodetypes="csscccscsscsc" />
    <circle
       style="color:#000000;clip-rule:nonzero;display:inline;overflow:visible;visibility:visible;opacity:1;isolation:auto;mix-blend-mode:normal;color-interpolation:sRGB;color-interpolation-filters:linearRGB;solid-color:#000000;solid-opacity:1;fill:#000000;fill-opacity:1;fill-rule:nonzero;stroke:none;stroke-width:1.5;stroke-linecap:butt;stroke-linejoin:miter;stroke-miterlimit:4;stroke-dasharray:none;stroke-dashoffset:0;stroke-opacity:1;marker:none;marker-start:none;marker-mid:none;marker-end:none;color-rendering:auto;image-rendering:auto;shape-rendering:auto;text-rendering:auto;enable-background:accumulate"
       id="path4185"
       cx="587.86816"
       cy="624.0575"
       r="38.385796" />
    <path
       style="fill:#000000;fill-opacity:1;fill-rule:evenodd;stroke:#000000;stroke-width:1px;stroke-linecap:butt;stroke-linejoin:miter;stroke-opacity:1"
       d="m 553.10459,664.9976 7.89407,4.88959 -24.07182,38.86314 4.85839,0.38622 -20.12638,14.26893 5.67562,-23.0712 2.00832,3.47188 z"
       id="path4187"
       inkscape:connector-curvature="0"
       sodipodi:nodetypes="cccccccc" />
    <path
       style="fill:#000000;fill-opacity:1;fill-rule:evenodd;stroke:#000000;stroke-width:1px;stroke-linecap:butt;stroke-linejoin:miter;stroke-opacity:1"
       d="m 531.10459,648.9976 7.89407,4.88959 -24.07182,38.86314 4.85839,0.38622 -20.12638,14.26893 5.67562,-23.0712 2.00832,3.47188 z"
       id="path4187-2"
       inkscape:connector-curvature="0"
       sodipodi:nodetypes="cccccccc" />
    <path
       style="fill:#000000;fill-opacity:1;fill-rule:evenodd;stroke:#000000;stroke-width:1px;stroke-linecap:butt;stroke-linejoin:miter;stroke-opacity:1"
       d="m 577.10459,678.9976 7.89407,4.88959 -24.07182,38.86314 4.85839,0.38622 -20.12638,14.26893 5.67562,-23.0712 2.00832,3.47188 z"
       id="path4187-20"
       inkscape:connector-curvature="0"
       sodipodi:nodetypes="cccccccc" />
  </g>
</svg>
