  0
SECTION
  2
HEADER
  9
$ACADVER
  1
AC1009
  9
$DWGCODEPAGE
  3
ansi_1251
  9
$INSBASE
 10
0.0
 20
0.0
 30
0.0
  9
$EXTMIN
 10
-138.9032325652901
 20
-487.7935889722137
 30
0.0
  9
$EXTMAX
 10
1483.370602718691
 20
457.4081014692807
 30
0.0
  9
$LIMMIN
 10
0.0
 20
0.0
  9
$LIMMAX
 10
420.0
 20
297.0
  9
$ORTHOMODE
 70
     0
  9
$REGENMODE
 70
     1
  9
$FILLMODE
 70
     1
  9
$QTEXTMODE
 70
     0
  9
$MIRRTEXT
 70
     0
  9
$DRAGMODE
 70
     2
  9
$LTSCALE
 40
1.0
  9
$OSMODE
 70
   511
  9
$ATTMODE
 70
     1
  9
$TEXTSIZE
 40
2.5
  9
$TRACEWID
 40
1.0
  9
$TEXTSTYLE
  7
STANDARD
  9
$CLAYER
  8
0
  9
$CELTYPE
  6
BYLAYER
  9
$CECOLOR
 62
   256
  9
$DIMSCALE
 40
1.0
  9
$DIMASZ
 40
2.5
  9
$DIMEXO
 40
0.625
  9
$DIMDLI
 40
3.75
  9
$DIMRND
 40
0.0
  9
$DIMDLE
 40
0.0
  9
$DIMEXE
 40
1.25
  9
$DIMTP
 40
0.0
  9
$DIMTM
 40
0.0
  9
$DIMTXT
 40
2.5
  9
$DIMCEN
 40
2.5
  9
$DIMTSZ
 40
0.0
  9
$DIMTOL
 70
     0
  9
$DIMLIM
 70
     0
  9
$DIMTIH
 70
     0
  9
$DIMTOH
 70
     0
  9
$DIMSE1
 70
     0
  9
$DIMSE2
 70
     0
  9
$DIMTAD
 70
     1
  9
$DIMZIN
 70
     8
  9
$DIMBLK
  1

  9
$DIMASO
 70
     1
  9
$DIMSHO
 70
     1
  9
$DIMPOST
  1

  9
$DIMAPOST
  1

  9
$DIMALT
 70
     0
  9
$DIMALTD
 70
     3
  9
$DIMALTF
 40
0.03937007874016
  9
$DIMLFAC
 40
1.0
  9
$DIMTOFL
 70
     1
  9
$DIMTVP
 40
0.0
  9
$DIMTIX
 70
     0
  9
$DIMSOXD
 70
     0
  9
$DIMSAH
 70
     0
  9
$DIMBLK1
  1

  9
$DIMBLK2
  1

  9
$DIMSTYLE
  2
ISO-25
  9
$DIMCLRD
 70
     0
  9
$DIMCLRE
 70
     0
  9
$DIMCLRT
 70
     0
  9
$DIMTFAC
 40
1.0
  9
$DIMGAP
 40
0.625
  9
$LUNITS
 70
     2
  9
$LUPREC
 70
     3
  9
$SKETCHINC
 40
1.0
  9
$FILLETRAD
 40
0.0
  9
$AUNITS
 70
     0
  9
$AUPREC
 70
     0
  9
$MENU
  1
.
  9
$ELEVATION
 40
0.0
  9
$PELEVATION
 40
0.0
  9
$THICKNESS
 40
0.0
  9
$LIMCHECK
 70
     0
  9
$CHAMFERA
 40
10.0
  9
$CHAMFERB
 40
10.0
  9
$SKPOLY
 70
     0
  9
$TDCREATE
 40
2455022.512359514
  9
$TDUPDATE
 40
2456566.469409722
  9
$TDINDWG
 40
0.0
  9
$TDUSRTIMER
 40
2456566.591180556
  9
$USRTIMER
 70
     1
  9
$ANGBASE
 50
0.0
  9
$ANGDIR
 70
     0
  9
$PDMODE
 70
     0
  9
$PDSIZE
 40
0.0
  9
$PLINEWID
 40
0.0
  9
$COORDS
 70
     0
  9
$SPLFRAME
 70
     0
  9
$SPLINETYPE
 70
     6
  9
$SPLINESEGS
 70
     8
  9
$ATTDIA
 70
     0
  9
$ATTREQ
 70
     1
  9
$HANDLING
 70
     1
  9
$HANDSEED
  5
2BD
  9
$SURFTAB1
 70
     6
  9
$SURFTAB2
 70
     6
  9
$SURFTYPE
 70
     6
  9
$SURFU
 70
     6
  9
$SURFV
 70
     6
  9
$UCSNAME
  2

  9
$UCSORG
 10
0.0
 20
0.0
 30
0.0
  9
$UCSXDIR
 10
1.0
 20
0.0
 30
0.0
  9
$UCSYDIR
 10
0.0
 20
1.0
 30
0.0
  9
$PUCSNAME
  2

  9
$PUCSORG
 10
0.0
 20
0.0
 30
0.0
  9
$PUCSXDIR
 10
1.0
 20
0.0
 30
0.0
  9
$PUCSYDIR
 10
0.0
 20
1.0
 30
0.0
  9
$USERI1
 70
     0
  9
$USERI2
 70
     0
  9
$USERI3
 70
     0
  9
$USERI4
 70
     0
  9
$USERI5
 70
     0
  9
$USERR1
 40
0.0
  9
$USERR2
 40
0.0
  9
$USERR3
 40
0.0
  9
$USERR4
 40
0.0
  9
$USERR5
 40
0.0
  9
$WORLDVIEW
 70
     1
  9
$SHADEDGE
 70
     3
  9
$SHADEDIF
 70
    70
  9
$TILEMODE
 70
     1
  9
$MAXACTVP
 70
    64
  9
$PLIMCHECK
 70
     0
  9
$PEXTMIN
 10
1.000000000000000E+20
 20
1.000000000000000E+20
 30
1.000000000000000E+20
  9
$PEXTMAX
 10
-1.000000000000000E+20
 20
-1.000000000000000E+20
 30
-1.000000000000000E+20
  9
$PLIMMIN
 10
0.0
 20
0.0
  9
$PLIMMAX
 10
0.0
 20
0.0
  9
$UNITMODE
 70
     0
  9
$VISRETAIN
 70
     1
  9
$PLINEGEN
 70
     0
  9
$PSLTSCALE
 70
     1
  0
ENDSEC
  0
SECTION
  2
TABLES
  0
TABLE
  2
VPORT
 70
     1
  0
VPORT
  2
*ACTIVE
 70
     0
 10
0.0
 20
0.0
 11
1.0
 21
1.0
 12
604.3297125609929
 22
109.3636219443818
 13
0.0
 23
0.0
 14
10.0
 24
10.0
 15
10.0
 25
10.0
 16
0.0
 26
0.0
 36
1.0
 17
-134.1869158878512
 27
0.0
 37
0.0
 40
940.4296874999802
 41
1.954598370197905
 42
50.0
 43
0.0
 44
0.0
 50
0.0
 51
0.0
 71
    16
 72
  1000
 73
     1
 74
     3
 75
     0
 76
     0
 77
     0
 78
     0
  0
ENDTAB
  0
TABLE
  2
LTYPE
 70
     2
  0
LTYPE
  2
CONTINUOUS
 70
     0
  3
Solid line
 72
    65
 73
     0
 40
0.0
  0
LTYPE
  2
HIDDEN
 70
     0
  3
Hidden _ _ _ _ _ _ _ _ _ _ _ _ _ _ _ _ _ _ _ _ 
 72
    65
 73
     2
 40
9.524999999999999
 49
6.35
 49
-3.175
  0
ENDTAB
  0
TABLE
  2
LAYER
 70
     1
  0
LAYER
  2
0
 70
     0
 62
     7
  6
CONTINUOUS
  0
ENDTAB
  0
TABLE
  2
STYLE
 70
     1
  0
STYLE
  2
STANDARD
 70
     0
 40
0.0
 41
1.0
 50
0.0
 71
     0
 42
2.5
  3
arial.ttf
  4

  0
ENDTAB
  0
TABLE
  2
VIEW
 70
     0
  0
ENDTAB
  0
TABLE
  2
UCS
 70
     0
  0
ENDTAB
  0
TABLE
  2
APPID
 70
     1
  0
APPID
  2
ACAD
 70
     0
  0
ENDTAB
  0
TABLE
  2
DIMSTYLE
 70
     1
  0
DIMSTYLE
  2
ISO-25
 70
     0
  3

  4

  5

  6

  7

 40
1.0
 41
2.5
 42
0.625
 43
3.75
 44
1.25
 45
0.0
 46
0.0
 47
0.0
 48
0.0
140
2.5
141
2.5
142
0.0
143
0.03937007874016
144
1.0
145
0.0
146
1.0
147
0.625
 71
     0
 72
     0
 73
     0
 74
     0
 75
     0
 76
     0
 77
     1
 78
     8
170
     0
171
     3
172
     1
173
     0
174
     0
175
     0
176
     0
177
     0
178
     0
  0
ENDTAB
  0
ENDSEC
  0
SECTION
  2
BLOCKS
  0
BLOCK
  8
0
  2
$MODEL_SPACE
 70
     0
 10
0.0
 20
0.0
 30
0.0
  3
$MODEL_SPACE
  1

  0
ENDBLK
  5
21
  8
0
  0
BLOCK
 67
     1
  8
0
  2
$PAPER_SPACE
 70
     0
 10
0.0
 20
0.0
 30
0.0
  3
$PAPER_SPACE
  1

  0
ENDBLK
  5
1D
 67
     1
  8
0
  0
ENDSEC
  0
SECTION
  2
ENTITIES
  0
LINE
  5
80
  8
0
 10
107.0804563528121
 20
76.29055384757191
 30
0.0
 11
123.3009503115188
 21
63.91899065872786
 31
0.0
  0
LINE
  5
81
  8
0
 10
107.2945018119555
 20
76.50459930671525
 30
0.0
 11
121.9019295377206
 21
65.36334087180961
 31
0.0
  0
LINE
  5
82
  8
0
 10
107.5085472710988
 20
76.71864476585858
 30
0.0
 11
122.0948339239422
 21
65.5935108780967
 31
0.0
  0
LINE
  5
83
  8
0
 10
107.7225927302421
 20
76.93269022500192
 30
0.0
 11
122.2877383101637
 21
65.82368088438376
 31
0.0
  0
LINE
  5
84
  8
0
 10
107.9366381893855
 20
77.14673568414526
 30
0.0
 11
122.4806426963853
 21
66.05385089067084
 31
0.0
  0
LINE
  5
85
  8
0
 10
108.1506836485288
 20
77.36078114328859
 30
0.0
 11
122.6735470826068
 21
66.28402089695791
 31
0.0
  0
LINE
  5
86
  8
0
 10
108.3647291076721
 20
77.57482660243194
 30
0.0
 11
122.8664514688284
 21
66.514190903245
 31
0.0
  0
LINE
  5
87
  8
0
 10
108.5787745668155
 20
77.78887206157528
 30
0.0
 11
123.0593558550499
 21
66.74436090953206
 31
0.0
  0
LINE
  5
88
  8
0
 10
108.7928200259588
 20
78.00291752071861
 30
0.0
 11
123.2522602412714
 21
66.97453091581914
 31
0.0
  0
LINE
  5
89
  8
0
 10
109.0068654851022
 20
78.21696297986195
 30
0.0
 11
123.445164627493
 21
67.20470092210621
 31
0.0
  0
LINE
  5
8A
  8
0
 10
109.2209109442455
 20
78.43100843900528
 30
0.0
 11
123.6380690137146
 21
67.43487092839328
 31
0.0
  0
LINE
  5
8B
  8
0
 10
109.4349564033888
 20
78.64505389814862
 30
0.0
 11
123.8309733999361
 21
67.66504093468035
 31
0.0
  0
LINE
  5
8C
  8
0
 10
109.6490018625322
 20
78.85909935729195
 30
0.0
 11
124.0238777861576
 21
67.89521094096743
 31
0.0
  0
LINE
  5
8D
  8
0
 10
109.8630473216755
 20
79.07314481643529
 30
0.0
 11
124.2167821723792
 21
68.12538094725451
 31
0.0
  0
LINE
  5
8E
  8
0
 10
110.0770927808188
 20
79.28719027557864
 30
0.0
 11
124.4096865586007
 21
68.35555095354158
 31
0.0
  0
LINE
  5
8F
  8
0
 10
113.0737292088256
 20
82.28382670358535
 30
0.0
 11
127.1103479657024
 21
71.57793104156062
 31
0.0
  0
LINE
  5
90
  8
0
 10
115.2141838002589
 20
84.42428129501872
 30
0.0
 11
129.0393918279179
 21
73.87963110443135
 31
0.0
  0
LINE
  5
91
  8
0
 10
115.4282292594023
 20
84.63832675416205
 30
0.0
 11
129.2322962141394
 21
74.10980111071844
 31
0.0
  0
LINE
  5
92
  8
0
 10
114.5720474228289
 20
83.78214491758871
 30
0.0
 11
128.4606786692533
 21
73.18912108557014
 31
0.0
  0
LINE
  5
93
  8
0
 10
113.2877746679689
 20
82.49787216272868
 30
0.0
 11
127.303252351924
 21
71.80810104784769
 31
0.0
  0
LINE
  5
94
  8
0
 10
114.1439565045422
 20
83.35405399930204
 30
0.0
 11
128.0748698968102
 21
72.728781072996
 31
0.0
  0
LINE
  5
95
  8
0
 10
113.9299110453989
 20
83.14000854015869
 30
0.0
 11
127.8819655105886
 21
72.49861106670892
 31
0.0
  0
LINE
  5
96
  8
0
 10
113.7158655862556
 20
82.92596308101535
 30
0.0
 11
127.6890611243671
 21
72.26844106042184
 31
0.0
  0
LINE
  5
97
  8
0
 10
113.5018201271122
 20
82.71191762187202
 30
0.0
 11
127.4961567381455
 21
72.03827105413478
 31
0.0
  0
LINE
  5
98
  8
0
 10
116.0703656368323
 20
85.28046313159207
 30
0.0
 11
129.8110093728041
 21
74.80031112957965
 31
0.0
  0
LINE
  5
99
  8
0
 10
115.0001383411156
 20
84.21023583587538
 30
0.0
 11
128.8464874416964
 21
73.64946109814429
 31
0.0
  0
LINE
  5
9A
  8
0
 10
115.8563201776889
 20
85.06641767244872
 30
0.0
 11
129.6181049865826
 21
74.57014112329259
 31
0.0
  0
LINE
  5
9B
  8
0
 10
114.3580019636856
 20
83.56809945844537
 30
0.0
 11
128.2677742830317
 21
72.95895107928307
 31
0.0
  0
LINE
  5
9C
  8
0
 10
114.7860928819723
 20
83.99619037673205
 30
0.0
 11
128.6535830554748
 21
73.41929109185722
 31
0.0
  0
LINE
  5
9D
  8
0
 10
115.6422747185456
 20
84.85237221330539
 30
0.0
 11
129.425200600361
 21
74.3399711170055
 31
0.0
  0
LINE
  5
9E
  8
0
 10
121.8495930337024
 20
91.05969052846216
 30
0.0
 11
135.0194278007859
 21
81.01490129933066
 31
0.0
  0
LINE
  5
9F
  8
0
 10
119.2810475239823
 20
88.49114501874212
 30
0.0
 11
132.7045751661273
 21
78.25286122388577
 31
0.0
  0
LINE
  5
A0
  8
0
 10
121.2074566562724
 20
90.41755415103215
 30
0.0
 11
134.4407146421213
 21
80.32439128046943
 31
0.0
  0
LINE
  5
A1
  8
0
 10
120.1372293605557
 20
89.34732685531547
 30
0.0
 11
133.4761927110135
 21
79.17354124903407
 31
0.0
  0
LINE
  5
A2
  8
0
 10
119.067002064839
 20
88.27709955959878
 30
0.0
 11
132.5116707799058
 21
78.02269121759869
 31
0.0
  0
LINE
  5
A3
  8
0
 10
120.5653202788423
 20
89.77541777360214
 30
0.0
 11
133.8620014834566
 21
79.63388126160821
 31
0.0
  0
LINE
  5
A4
  8
0
 10
121.635547574559
 20
90.84564506931882
 30
0.0
 11
134.8265234145643
 21
80.78473129304358
 31
0.0
  0
LINE
  5
A5
  8
0
 10
119.4950929831257
 20
88.70519047788545
 30
0.0
 11
132.8974795523489
 21
78.48303123017284
 31
0.0
  0
LINE
  5
A6
  8
0
 10
120.993411197129
 20
90.20350869188881
 30
0.0
 11
134.2478102558997
 21
80.09422127418236
 31
0.0
  0
LINE
  5
A7
  8
0
 10
120.351274819699
 20
89.56137231445881
 30
0.0
 11
133.6690970972351
 21
79.40371125532114
 31
0.0
  0
LINE
  5
A8
  8
0
 10
120.7793657379857
 20
89.98946323274548
 30
0.0
 11
134.0549058696782
 21
79.86405126789529
 31
0.0
  0
LINE
  5
A9
  8
0
 10
119.9231839014123
 20
89.13328139617212
 30
0.0
 11
133.283288324792
 21
78.943371242747
 31
0.0
  0
LINE
  5
AA
  8
0
 10
121.4215021154157
 20
90.63159961017548
 30
0.0
 11
134.6336190283428
 21
80.55456128675651
 31
0.0
  0
LINE
  5
AB
  8
0
 10
122.0636384928457
 20
91.2737359876055
 30
0.0
 11
135.2123321870075
 21
81.24507130561773
 31
0.0
  0
LINE
  5
AC
  8
0
 10
119.709138442269
 20
88.91923593702879
 30
0.0
 11
133.0903839385704
 21
78.71320123645991
 31
0.0
  0
LINE
  5
AE
  8
0
 10
121.7681035961903
 20
65.20366219157458
 30
0.0
 11
137.8969563460907
 21
84.44831604088753
 31
0.0
  0
LINE
  5
B5
  8
0
 10
225.451267701824
 20
221.8168758738153
 30
0.0
 11
272.7839520502533
 21
243.5816629653003
 31
0.0
  0
LINE
  5
B6
  8
0
 10
128.6379853399266
 20
86.25940364661162
 30
0.0
 11
113.654803199893
 21
71.27622150657803
 31
0.0
  0
SOLID
  5
B7
  8
0
 10
113.654803199893
 20
71.27622150657803
 30
0.0
 11
114.0921379514522
 21
72.30261939289042
 31
0.0
 12
114.7347522802738
 22
71.6957058601144
 32
0.0
 13
114.7347522802738
 23
71.6957058601144
 33
0.0
  0
LINE
  5
B8
  8
0
 10
121.768
 20
65.20400000000001
 30
0.0
 11
139.1814007225706
 21
85.98135313488535
 31
0.0
  0
LINE
  5
B9
  8
0
 10
122.5066674986086
 20
64.52479958382881
 30
0.0
 11
139.307332898903
 21
84.5710480728163
 31
0.0
  0
SOLID
  5
BA
  8
0
 10
122.5066674986086
 20
64.52479958382881
 30
0.0
 11
122.9440022501678
 21
65.5511974701412
 31
0.0
 12
123.5866165789895
 22
64.94428393736519
 32
0.0
 13
123.5866165789895
 23
64.94428393736519
 33
0.0
  0
LINE
  5
BC
  8
0
 10
139.4298030614192
 20
83.16364450804082
 30
0.0
 11
154.7582702147039
 21
70.31692917957365
 31
0.0
  0
LINE
  5
BD
  8
0
 10
139.1814007225706
 20
85.98135313488535
 30
0.0
 11
154.5100950322221
 21
73.13444742774882
 31
0.0
  0
LINE
  5
BE
  8
0
 10
141.9991461271126
 20
86.22933793869774
 30
0.0
 11
157.3276132803973
 21
73.38262261023057
 31
0.0
  0
LINE
  5
BF
  8
0
 10
154.7582702147039
 20
70.31692917957365
 30
0.0
 11
157.3276132803973
 21
73.38262261023057
 31
0.0
  0
LINE
  5
C0
  8
0
 10
153.2254234993754
 20
71.60160071242036
 30
0.0
 11
155.7947665650688
 21
74.66729414307729
 31
0.0
  0
LINE
  5
C2
  8
0
 10
139.307332898903
 20
84.5710480728163
 30
0.0
 11
154.6341826234629
 21
71.72568830366123
 31
0.0
  0
LINE
  5
C3
  8
0
 10
139.823736488994
 20
86.74777649254959
 30
0.0
 11
155.9188541563097
 21
73.2585350189897
 31
0.0
  0
LINE
  5
C4
  8
0
 10
154.6341826234629
 20
71.72568830366123
 30
0.0
 11
155.9188541563097
 21
73.2585350189897
 31
0.0
  0
LINE
  5
C5
  8
0
 10
141.9991461271126
 20
86.22933793869774
 30
0.0
 11
148.1099016341697
 21
93.5205803050727
 31
0.0
  0
LINE
  5
C6
  8
0
 10
148.1099016341697
 20
93.5205803050727
 30
0.0
 11
173.958408104189
 21
90.11732866952157
 31
0.0
  0
LINE
  5
C7
  8
0
 10
148.5015063612294
 20
96.49491144631176
 30
0.0
 11
174.3500128312487
 21
93.09165981076063
 31
0.0
  0
SOLID
  5
C8
  8
0
 10
148.5015063612294
 20
96.49491144631176
 30
0.0
 11
149.5957381485118
 21
96.71265235117062
 31
0.0
 12
149.4569927598138
 22
95.83969935759731
 32
0.0
 13
149.4569927598138
 23
95.83969935759731
 33
0.0
  0
SOLID
  5
CA
  8
0
 10
145.0526467362865
 20
105.6670840014895
 30
0.0
 11
144.4600757593205
 21
106.612395560292
 31
0.0
 12
145.3253178208815
 22
106.7930980416786
 32
0.0
 13
145.3253178208815
 23
106.7930980416786
 33
0.0
  0
LINE
  5
CB
  8
0
 10
141.1175876174979
 20
168.3577737534595
 30
0.0
 11
148.6343661409879
 21
165.6195187199024
 31
0.0
  0
LINE
  5
CD
  8
0
 10
224.2748507068647
 20
224.3752732544321
 30
0.0
 11
271.6075350552941
 21
246.140060345917
 31
0.0
  0
SOLID
  5
CE
  8
0
 10
224.2748507068647
 20
224.3752732544321
 30
0.0
 11
225.0247088161239
 21
225.2013889375698
 31
0.0
 12
225.4326484236789
 22
224.4172445067016
 32
0.0
 13
225.4326484236789
 23
224.4172445067016
 33
0.0
  0
LINE
  5
D7
  8
0
 10
385.2144796192759
 20
365.6300909604267
 30
0.0
 11
418.032874743355
 21
385.7245692988108
 31
0.0
  0
LINE
  5
D8
  8
0
 10
385.2144796192759
 20
348.0288494862931
 30
0.0
 11
407.8057797659394
 21
361.8613476848412
 31
0.0
  0
LINE
  5
D9
  8
0
 10
385.2144796192759
 20
319.5479976409511
 30
0.0
 11
397.1084735251944
 21
326.8306085667971
 31
0.0
  0
ARC
  5
E1
  8
0
 10
231.7346160274579
 20
57.22656360440409
 30
0.0
 40
99.39475642060209
 50
116.021114442287
 51
127.7321157303189
  0
ARC
  5
E2
  8
0
 10
231.7346160274579
 20
57.22656360440409
 30
0.0
 40
99.39475642060209
 50
132.1139613604934
 51
149.8493164913548
  0
ARC
  5
E3
  8
0
 10
461.5089323750245
 20
262.9838290637314
 30
0.0
 40
80.03610482672049
 50
342.4138151586085
 51
40.8051554267246
  0
LINE
  5
E6
  8
0
 10
635.0384798411311
 20
332.4851166154463
 30
0.0
 11
655.3549545446407
 21
274.9637044904945
 31
0.0
  0
LINE
  5
E7
  8
0
 10
634.7640244739214
 20
332.3613697370318
 30
0.0
 11
655.0534939937434
 21
274.916416560942
 31
0.0
  0
LINE
  5
E8
  8
0
 10
634.4895691067118
 20
332.2376228586174
 30
0.0
 11
654.752033442846
 21
274.8691286313895
 31
0.0
  0
LINE
  5
E9
  8
0
 10
634.2151137395022
 20
332.113875980203
 30
0.0
 11
654.4505728919487
 21
274.8218407018369
 31
0.0
  0
LINE
  5
EA
  8
0
 10
633.9406583722924
 20
331.9901291017885
 30
0.0
 11
654.1491123410513
 21
274.7745527722844
 31
0.0
  0
LINE
  5
EB
  8
0
 10
633.6662030050828
 20
331.8663822233741
 30
0.0
 11
653.8476517901539
 21
274.7272648427319
 31
0.0
  0
LINE
  5
EC
  8
0
 10
633.3917476378731
 20
331.7426353449597
 30
0.0
 11
653.5461912392566
 21
274.6799769131794
 31
0.0
  0
LINE
  5
ED
  8
0
 10
633.1172922706635
 20
331.6188884665452
 30
0.0
 11
653.2447306883593
 21
274.6326889836268
 31
0.0
  0
LINE
  5
EE
  8
0
 10
632.8428369034539
 20
331.4951415881308
 30
0.0
 11
652.9432701374619
 21
274.5854010540743
 31
0.0
  0
LINE
  5
EF
  8
0
 10
632.5683815362441
 20
331.3713947097164
 30
0.0
 11
652.6418095865646
 21
274.5381131245218
 31
0.0
  0
LINE
  5
F0
  8
0
 10
632.2939261690345
 20
331.2476478313019
 30
0.0
 11
652.3403490356673
 21
274.4908251949693
 31
0.0
  0
LINE
  5
F1
  8
0
 10
632.0194708018249
 20
331.1239009528875
 30
0.0
 11
652.0388884847699
 21
274.4435372654168
 31
0.0
  0
LINE
  5
F2
  8
0
 10
631.7450154346152
 20
331.0001540744731
 30
0.0
 11
651.7374279338725
 21
274.3962493358642
 31
0.0
  0
LINE
  5
F3
  8
0
 10
631.4705600674056
 20
330.8764071960587
 30
0.0
 11
651.4359673829752
 21
274.3489614063117
 31
0.0
  0
LINE
  5
F6
  8
0
 10
627.6281849264705
 20
329.1439508982567
 30
0.0
 11
647.2155196704123
 21
273.6869303925764
 31
0.0
  0
LINE
  5
F7
  8
0
 10
625.4325419887932
 20
328.1539758709412
 30
0.0
 11
644.8038352632336
 21
273.3086269561562
 31
0.0
  0
LINE
  5
F8
  8
0
 10
625.7069973560028
 20
328.2777227493557
 30
0.0
 11
645.105295814131
 21
273.3559148857087
 31
0.0
  0
LINE
  5
F9
  8
0
 10
625.9814527232126
 20
328.4014696277701
 30
0.0
 11
645.4067563650283
 21
273.4032028152612
 31
0.0
  0
LINE
  5
FA
  8
0
 10
624.6091758871643
 20
327.7827352356979
 30
0.0
 11
643.8994536105416
 21
273.1667631674986
 31
0.0
  0
LINE
  5
FB
  8
0
 10
624.8836312543739
 20
327.9064821141124
 30
0.0
 11
644.2009141614388
 21
273.2140510970511
 31
0.0
  0
LINE
  5
FC
  8
0
 10
626.8048188248415
 20
328.7727102630134
 30
0.0
 11
646.3111380177204
 21
273.5450666039188
 31
0.0
  0
LINE
  5
FD
  8
0
 10
624.3347205199547
 20
327.6589883572835
 30
0.0
 11
643.5979930596443
 21
273.1194752379461
 31
0.0
  0
LINE
  5
FE
  8
0
 10
623.7858097855353
 20
327.4114946004547
 30
0.0
 11
642.9950719578495
 21
273.024899378841
 31
0.0
  0
LINE
  5
FF
  8
0
 10
626.2559080904222
 20
328.5252165061845
 30
0.0
 11
645.7082169159256
 21
273.4504907448137
 31
0.0
  0
LINE
  5
100
  8
0
 10
624.0602651527449
 20
327.5352414788691
 30
0.0
 11
643.2965325087468
 21
273.0721873083935
 31
0.0
  0
LINE
  5
101
  8
0
 10
627.0792741920511
 20
328.8964571414278
 30
0.0
 11
646.6125985686177
 21
273.5923545334713
 31
0.0
  0
LINE
  5
102
  8
0
 10
626.5303634576319
 20
328.648963384599
 30
0.0
 11
646.0096774668231
 21
273.4977786743663
 31
0.0
  0
LINE
  5
103
  8
0
 10
625.1580866215836
 20
328.0302289925268
 30
0.0
 11
644.5023747123363
 21
273.2613390266037
 31
0.0
  0
LINE
  5
104
  8
0
 10
627.3537295592608
 20
329.0202040198423
 30
0.0
 11
646.9140591195151
 21
273.6396424630238
 31
0.0
  0
LINE
  5
105
  8
0
 10
619.9434346446002
 20
325.6790383026527
 30
0.0
 11
638.7746242452866
 21
272.3628683651057
 31
0.0
  0
LINE
  5
106
  8
0
 10
617.747791706923
 20
324.6890632753372
 30
0.0
 11
636.3629398381079
 21
271.9845649286855
 31
0.0
  0
LINE
  5
107
  8
0
 10
618.0222470741326
 20
324.8128101537517
 30
0.0
 11
636.6644003890052
 21
272.031852858238
 31
0.0
  0
LINE
  5
108
  8
0
 10
618.2967024413423
 20
324.9365570321661
 30
0.0
 11
636.9658609399027
 21
272.0791407877905
 31
0.0
  0
LINE
  5
109
  8
0
 10
616.924425605294
 20
324.3178226400939
 30
0.0
 11
635.4585581854159
 21
271.8427011400279
 31
0.0
  0
LINE
  5
10A
  8
0
 10
617.1988809725036
 20
324.4415695185084
 30
0.0
 11
635.7600187363132
 21
271.8899890695805
 31
0.0
  0
LINE
  5
10B
  8
0
 10
619.1200685429712
 20
325.3077976674094
 30
0.0
 11
637.8702425925946
 21
272.2210045764481
 31
0.0
  0
LINE
  5
10C
  8
0
 10
616.6499702380844
 20
324.1940757616795
 30
0.0
 11
635.1570976345185
 21
271.7954132104754
 31
0.0
  0
LINE
  5
10D
  8
0
 10
616.101059503665
 20
323.9465820048507
 30
0.0
 11
634.5541765327239
 21
271.7008373513703
 31
0.0
  0
LINE
  5
10E
  8
0
 10
618.5711578085519
 20
325.0603039105805
 30
0.0
 11
637.2673214908
 21
272.1264287173431
 31
0.0
  0
LINE
  5
10F
  8
0
 10
616.3755148708747
 20
324.0703288832651
 30
0.0
 11
634.8556370836211
 21
271.7481252809229
 31
0.0
  0
LINE
  5
110
  8
0
 10
619.3945239101809
 20
325.4315445458238
 30
0.0
 11
638.171703143492
 21
272.2682925060006
 31
0.0
  0
LINE
  5
111
  8
0
 10
618.8456131757616
 20
325.184050788995
 30
0.0
 11
637.5687820416973
 21
272.1737166468956
 31
0.0
  0
LINE
  5
112
  8
0
 10
617.4733363397133
 20
324.5653163969228
 30
0.0
 11
636.0614792872105
 21
271.937276999133
 31
0.0
  0
LINE
  5
113
  8
0
 10
619.6689792773906
 20
325.5552914242382
 30
0.0
 11
638.4731636943893
 21
272.3155804355532
 31
0.0
  0
LINE
  5
114
  8
0
 10
593.4714798230093
 20
255.1342108093443
 30
0.0
 11
659.0439099044991
 21
265.420082194676
 31
0.0
  0
LINE
  5
115
  8
0
 10
591.9218021345572
 20
265.0134060732266
 30
0.0
 11
655.656415095538
 21
275.010992420047
 31
0.0
  0
LINE
  5
116
  8
0
 10
592.6966409787833
 20
260.0738084412855
 30
0.0
 11
657.3501625000185
 21
270.2155373073615
 31
0.0
  0
SOLID
  5
117
  8
0
 10
657.3501625000184
 20
270.2155373073616
 30
0.0
 11
656.3848751408323
 21
269.6560959608887
 31
0.0
 12
656.2342787265475
 22
270.5270827184678
 32
0.0
 13
656.2342787265475
 23
270.5270827184678
 33
0.0
  0
LINE
  5
11B
  8
0
 10
624.3773528805616
 20
300.5141662365169
 30
0.0
 11
645.4795914433759
 21
303.8243213051937
 31
0.0
  0
SOLID
  5
11C
  8
0
 10
645.4795914433757
 20
303.8243213051937
 30
0.0
 11
644.5143040841896
 21
303.2648799587209
 31
0.0
 12
644.3637076699048
 22
304.1358667163
 32
0.0
 13
644.3637076699048
 23
304.1358667163
 33
0.0
  0
LINE
  5
124
  8
0
 10
443.9804336052433
 20
376.5285366234416
 30
0.0
 11
443.9804336052433
 21
313.6736666822706
 31
0.0
  0
LINE
  5
125
  8
0
 10
443.9804336052433
 20
313.6736666822706
 30
0.0
 11
436.7043533224281
 21
310.8149404908664
 31
0.0
  0
SOLID
  5
126
  8
0
 10
439.5327804471741
 20
377.7377377148649
 30
0.0
 11
439.9174129109581
 21
378.785025723844
 31
0.0
 12
440.5900268765092
 22
378.2115384395743
 32
0.0
 13
440.5900268765092
 23
378.2115384395743
 33
0.0
  0
ARC
  5
138
  8
0
 10
461.5089323750245
 20
262.9838290637314
 30
0.0
 40
76.03610482672049
 50
8.24604491968128
 51
80.28704224246805
  0
LINE
  5
13B
  8
0
 10
515.9584200090817
 20
316.0568215703602
 30
0.0
 11
515.9584200090817
 21
316.0568215703602
 31
0.0
  0
ARC
  5
13F
  8
0
 10
461.5089323750245
 20
262.9838290637314
 30
0.0
 40
80.03610482672049
 50
47.77443754962488
 51
108.0542508501543
  0
ARC
  5
140
  8
0
 10
461.5089323750245
 20
262.9838290637314
 30
0.0
 40
78.03610482672049
 50
8.24604491968128
 51
40.8051554267246
  0
ARC
  5
141
  8
0
 10
461.5089323750245
 20
262.9838290637314
 30
0.0
 40
78.03610482672049
 50
47.77443754962495
 51
80.28704224246805
  0
SOLID
  5
142
  8
0
 10
513.9531771284342
 20
320.769942004224
 30
0.0
 11
512.8909441238595
 21
321.1111389414027
 31
0.0
 12
513.4362585287074
 22
321.8067892930441
 32
0.0
 13
513.4362585287074
 23
321.8067892930441
 33
0.0
  0
SOLID
  5
143
  8
0
 10
520.577289578253
 20
313.9795429408671
 30
0.0
 11
521.5874369909468
 21
313.5058800749214
 31
0.0
 12
520.9579908182446
 22
312.8853200636863
 32
0.0
 13
520.9579908182446
 23
312.8853200636863
 33
0.0
  0
LINE
  5
145
  8
0
 10
534.1832556870695
 20
-155.1835389794318
 30
0.0
 11
538.1556004396767
 21
-151.2111942268247
 31
0.0
  0
LINE
  5
146
  8
0
 10
555.6989005477403
 20
-149.2552094136268
 30
0.0
 11
559.237898600063
 21
-145.7162113613041
 31
0.0
  0
LINE
  5
147
  8
0
 10
516.201154428067
 20
-149.2552094136268
 30
0.0
 11
519.7401524803897
 21
-145.7162113613041
 31
0.0
  0
LINE
  5
148
  8
0
 10
494.6855095673963
 20
-155.1835389794318
 30
0.0
 11
494.8764372279192
 21
-154.9926113189089
 31
0.0
  0
LINE
  5
14A
  8
0
 10
533.4039108246864
 20
-155.9622224618187
 30
0.0
 11
511.6368972977675
 21
-155.9622224618187
 31
0.0
  0
LINE
  5
14B
  8
0
 10
493.9061647050131
 20
-155.9622224618187
 30
0.0
 11
487.8714399904787
 21
-161.996947176353
 31
0.0
  0
LINE
  5
14C
  8
0
 10
534.1832556870695
 20
-155.1835389794318
 30
0.0
 11
511.6368972977675
 21
-155.1835389794318
 31
0.0
  0
LINE
  5
14D
  8
0
 10
538.1556004396767
 20
-151.2111942268247
 30
0.0
 11
511.6368972977675
 21
-151.2111942268247
 31
0.0
  0
LINE
  5
14E
  8
0
 10
555.6989005477403
 20
-149.2552094136268
 30
0.0
 11
516.201154428067
 21
-149.2552094136268
 31
0.0
  0
LINE
  5
14F
  8
0
 10
559.237898600063
 20
-145.7162113613041
 30
0.0
 11
519.7401524803897
 21
-145.7162113613041
 31
0.0
  0
LINE
  5
151
  8
0
 10
554.9603820176064
 20
-149.9274977472842
 30
0.0
 11
515.4626358979332
 21
-149.9274977472842
 31
0.0
  0
LINE
  5
152
  8
0
 10
515.4626358979332
 20
-149.9274977472842
 30
0.0
 11
514.1789394183927
 21
-151.2111942268247
 31
0.0
  0
LINE
  5
157
  8
0
 10
494.8764372279192
 20
-155.9622224618187
 30
0.0
 11
493.9061647050131
 21
-155.9622224618187
 31
0.0
  0
LINE
  5
158
  8
0
 10
494.8764372279192
 20
-155.1835389794318
 30
0.0
 11
494.6855095673963
 21
-155.1835389794318
 31
0.0
  0
LINE
  5
159
  8
0
 10
610.6294058478904
 20
-149.9274977472842
 30
0.0
 11
511.6368972977675
 21
-137.1039165566708
 31
0.0
  0
LINE
  5
15A
  8
0
 10
610.6294058478904
 20
-143.5522807973426
 30
0.0
 11
511.6368972977675
 21
-130.7286996067292
 31
0.0
  0
LINE
  5
15B
  8
0
 10
610.6294058478904
 20
-143.5522807973426
 30
0.0
 11
610.6294058478904
 21
-149.9274977472842
 31
0.0
  0
LINE
  5
15C
  8
0
 10
494.8764372279192
 20
-128.557534094857
 30
0.0
 11
477.9479903363593
 21
-126.3646074146023
 31
0.0
  0
LINE
  5
15D
  8
0
 10
494.8764372279192
 20
-134.9327510447986
 30
0.0
 11
470.7673558256156
 21
-131.8096383232232
 31
0.0
  0
LINE
  5
168
  8
0
 10
197.3138098799923
 20
-156.0065060495939
 30
0.0
 11
275.9497310681863
 21
-162.1682759934449
 31
0.0
  0
LINE
  5
169
  8
0
 10
197.3138098799923
 20
-146.8226923126907
 30
0.0
 11
275.9497310681863
 21
-152.9844622565417
 31
0.0
  0
LINE
  5
16A
  8
0
 10
351.1426899731207
 20
-158.8764478423761
 30
0.0
 11
351.1426899731207
 21
-168.0602615792793
 31
0.0
  0
LINE
  5
16B
  8
0
 10
197.3138098799923
 20
-146.8226923126907
 30
0.0
 11
197.3138098799923
 21
-156.0065060495939
 31
0.0
  0
LINE
  5
170
  8
0
 10
334.3764763128413
 20
-118.4910896826799
 30
0.0
 11
334.3764763128413
 21
-127.6749034195831
 31
0.0
  0
LINE
  5
172
  8
0
 10
138.7669973072345
 20
-153.3910127044192
 30
0.0
 11
138.7669973072345
 21
-133.4698321572831
 31
0.0
  0
LINE
  5
173
  8
0
 10
197.3138098799923
 20
-131.225180042672
 30
0.0
 11
249.4143172208924
 21
-118.4910896826799
 31
0.0
  0
LINE
  5
174
  8
0
 10
249.4143172208924
 20
-118.4910896826799
 30
0.0
 11
275.9497310681863
 21
-118.4910896826799
 31
0.0
  0
LINE
  5
175
  8
0
 10
197.3138098799923
 20
-146.8226923126907
 30
0.0
 11
197.3138098799923
 21
-131.225180042672
 31
0.0
  0
LINE
  5
176
  8
0
 10
197.3138098799923
 20
-140.6793271681276
 30
0.0
 11
250.520364554985
 21
-127.6749034195831
 31
0.0
  0
LINE
  5
177
  8
0
 10
250.520364554985
 20
-127.6749034195831
 30
0.0
 11
275.9497310681863
 21
-127.6749034195831
 31
0.0
  0
LINE
  5
178
  8
0
 10
197.3138098799923
 20
-140.6793271681276
 30
0.0
 11
109.0482307614884
 21
-140.6793271681276
 31
0.0
  0
LINE
  5
179
  8
0
 10
138.7669973072345
 20
-133.4698321572831
 30
0.0
 11
106.0949436486123
 21
-133.4698321572831
 31
0.0
  0
LINE
  5
17B
  8
0
 10
298.1378250565449
 20
-118.4910896826799
 30
0.0
 11
334.3764763128413
 21
-118.4910896826799
 31
0.0
  0
LINE
  5
17C
  8
0
 10
298.1378250565449
 20
-127.6749034195831
 30
0.0
 11
334.3764763128413
 21
-127.6749034195831
 31
0.0
  0
LINE
  5
17D
  8
0
 10
298.1378250565449
 20
-154.7230815615997
 30
0.0
 11
351.1426899731207
 21
-158.8764478423761
 31
0.0
  0
LINE
  5
17E
  8
0
 10
298.1378250565449
 20
-163.9068952985028
 30
0.0
 11
351.1426899731207
 21
-168.0602615792793
 31
0.0
  0
LINE
  5
241
  8
0
 10
144.0704348211723
 20
105.4793081941883
 30
0.0
 11
138.1009558921851
 21
136.7042748996597
 31
0.0
  0
LINE
  5
242
  8
0
 10
138.1009558921851
 20
136.7042748996597
 30
0.0
 11
149.8103184067369
 21
168.8476229788214
 31
0.0
  0
LINE
  5
243
  8
0
 10
494.8764372279192
 20
-122.5873859013581
 30
0.0
 11
494.8764372279192
 21
-161.996947176353
 31
0.0
  0
LINE
  5
244
  8
0
 10
494.8764372279192
 20
-161.996947176353
 30
0.0
 11
511.6368972977675
 21
-161.996947176353
 31
0.0
  0
LINE
  5
245
  8
0
 10
511.6368972977675
 20
-161.996947176353
 30
0.0
 11
511.6368972977675
 21
-122.5873859013581
 31
0.0
  0
LINE
  5
246
  8
0
 10
511.6368972977675
 20
-122.5873859013581
 30
0.0
 11
494.8764372279192
 21
-122.5873859013581
 31
0.0
  0
LINE
  5
247
  8
0
 10
436.7043533224281
 20
304.6940876521845
 30
0.0
 11
436.7043533224281
 21
380.5661648396111
 31
0.0
  0
LINE
  5
248
  8
0
 10
436.7043533224281
 20
380.5661648396111
 30
0.0
 11
444.4210528148611
 21
388.2828643320441
 31
0.0
  0
LINE
  5
249
  8
0
 10
444.4210528148611
 20
388.2828643320441
 30
0.0
 11
576.9773503515308
 21
306.3064209513695
 31
0.0
  0
LINE
  5
24A
  8
0
 10
576.9773503515308
 20
306.3064209513695
 30
0.0
 11
635.3129352083407
 21
332.6088634938607
 31
0.0
  0
LINE
  5
24B
  8
0
 10
635.3129352083407
 20
332.6088634938607
 30
0.0
 11
659.0439099044991
 21
265.420082194676
 31
0.0
  0
LINE
  5
24C
  8
0
 10
659.0439099044991
 20
265.420082194676
 30
0.0
 11
593.4714798230093
 21
255.1342108093443
 31
0.0
  0
LINE
  5
24D
  8
0
 10
593.4714798230093
 20
255.1342108093443
 30
0.0
 11
585.6321764171886
 21
238.8017164596355
 31
0.0
  0
LINE
  5
24E
  8
0
 10
585.6321764171886
 20
238.8017164596355
 30
0.0
 11
513.3371946802857
 21
238.8017164596355
 31
0.0
  0
LINE
  5
24F
  8
0
 10
513.3371946802857
 20
238.8017164596355
 30
0.0
 11
498.7606455170728
 21
279.2398851059681
 31
0.0
  0
LINE
  5
250
  8
0
 10
498.7606455170728
 20
279.2398851059681
 30
0.0
 11
494.5287441471077
 21
293.9339870850134
 31
0.0
  0
LINE
  5
251
  8
0
 10
494.5287441471077
 20
293.9339870850134
 30
0.0
 11
443.5695984837786
 21
305.1896692009622
 31
0.0
  0
LINE
  5
252
  8
0
 10
443.5695984837786
 20
305.1896692009622
 30
0.0
 11
436.7043533224281
 21
304.6940876521845
 31
0.0
  0
LINE
  5
253
  8
0
 10
549.11638245691
 20
249.2233341995778
 30
0.0
 11
549.11638245691
 21
259.2233341995778
 31
0.0
  0
LINE
  5
254
  8
0
 10
549.11638245691
 20
259.2233341995778
 30
0.0
 11
559.11638245691
 21
259.2233341995778
 31
0.0
  0
LINE
  5
255
  8
0
 10
559.11638245691
 20
259.2233341995778
 30
0.0
 11
559.11638245691
 21
249.2233341995778
 31
0.0
  0
LINE
  5
256
  8
0
 10
559.11638245691
 20
249.2233341995778
 30
0.0
 11
549.11638245691
 21
249.2233341995778
 31
0.0
  0
LINE
  5
257
  8
0
 10
298.1378250565449
 20
-170.6084384103684
 30
0.0
 11
298.1378250565449
 21
-99.48369661212246
 31
0.0
  0
LINE
  5
258
  8
0
 10
298.1378250565449
 20
-99.48369661212246
 30
0.0
 11
275.9497310681863
 21
-99.48369661212246
 31
0.0
  0
LINE
  5
259
  8
0
 10
275.9497310681863
 20
-99.48369661212246
 30
0.0
 11
275.9497310681863
 21
-171.0581970722945
 31
0.0
  0
LINE
  5
25A
  8
0
 10
145.0526467362866
 20
105.6670840014895
 30
0.0
 11
139.1349585929902
 21
136.6211450587323
 31
0.0
  0
LINE
  5
25B
  8
0
 10
139.1349585929902
 20
136.6211450587323
 30
0.0
 11
150.7499157221732
 21
168.5053410996268
 31
0.0
  0
LINE
  5
25C
  8
0
 10
123.3009503115188
 20
63.91899065872786
 30
0.0
 11
139.4298030614192
 21
83.16364450804082
 31
0.0
  0
LINE
  5
25D
  8
0
 10
161.7296748844271
 20
171.5983938931452
 30
0.0
 11
169.8952984159568
 21
164.6424923662867
 31
0.0
  0
LINE
  5
25E
  8
0
 10
169.8952984159568
 20
164.6424923662867
 30
0.0
 11
184.2835330811026
 21
181.5330287123274
 31
0.0
  0
LINE
  5
25F
  8
0
 10
184.2835330811026
 20
181.5330287123274
 30
0.0
 11
176.117909549573
 21
188.488930239186
 31
0.0
  0
LINE
  5
260
  8
0
 10
176.117909549573
 20
188.488930239186
 30
0.0
 11
161.7296748844271
 21
171.5983938931452
 31
0.0
  0
LINE
  5
261
  8
0
 10
418.032874743355
 20
385.7245692988108
 30
0.0
 11
418.032874743355
 21
362.0964533165059
 31
0.0
  0
LINE
  5
262
  8
0
 10
418.032874743355
 20
362.0964533165059
 30
0.0
 11
419.7961669808404
 21
348.1076682324547
 31
0.0
  0
LINE
  5
263
  8
0
 10
419.7961669808404
 20
348.1076682324547
 30
0.0
 11
401.4579277109918
 21
339.5263126766923
 31
0.0
  0
LINE
  5
264
  8
0
 10
401.4579277109918
 20
339.5263126766923
 30
0.0
 11
414.6826194921326
 21
312.7536588708717
 31
0.0
  0
LINE
  5
265
  8
0
 10
414.6826194921326
 20
312.7536588708717
 30
0.0
 11
395.4838936103911
 21
307.5872126150393
 31
0.0
  0
LINE
  5
266
  8
0
 10
395.4838936103911
 20
307.5872126150393
 30
0.0
 11
402.9320400215296
 21
301.4180408401569
 31
0.0
  0
LINE
  5
267
  8
0
 10
402.9320400215296
 20
301.4180408401569
 30
0.0
 11
399.170349914894
 21
299.4619619847064
 31
0.0
  0
LINE
  5
268
  8
0
 10
399.170349914894
 20
299.4619619847064
 30
0.0
 11
385.2144796192759
 21
313.4178322803245
 31
0.0
  0
LINE
  5
269
  8
0
 10
385.2144796192759
 20
313.4178322803245
 30
0.0
 11
385.2144796192759
 21
365.6300909604267
 31
0.0
  0
LINE
  5
26A
  8
0
 10
385.2144796192759
 20
365.6300909604267
 30
0.0
 11
418.032874743355
 21
385.7245692988108
 31
0.0
  0
LINE
  5
26B
  8
0
 10
174.7416175583084
 20
96.06599095199971
 30
0.0
 11
147.2133580737947
 21
99.69040129165356
 31
0.0
  0
LINE
  5
26C
  8
0
 10
147.2133580737947
 20
99.69040129165356
 30
0.0
 11
140.1689612937951
 21
136.5380152178048
 31
0.0
  0
LINE
  5
26D
  8
0
 10
140.1689612937951
 20
136.5380152178048
 30
0.0
 11
151.6895130376094
 21
168.1630592204322
 31
0.0
  0
LINE
  5
26E
  8
0
  6
HIDDEN
 10
342.1247871047802
 20
248.5412320707414
 30
0.0
 11
336.8900132747453
 21
253.7760059007764
 31
0.0
  0
LINE
  5
26F
  8
0
  6
HIDDEN
 10
336.8900132747453
 20
253.7760059007764
 30
0.0
 11
357.0025653585636
 21
283.256047996236
 31
0.0
  0
LINE
  5
270
  8
0
  6
HIDDEN
 10
357.0025653585636
 20
283.256047996236
 30
0.0
 11
454.7039938102512
 21
321.0333214099726
 31
0.0
  0
LINE
  5
271
  8
0
  6
HIDDEN
 10
454.7039938102512
 20
321.0333214099726
 30
0.0
 11
454.7039938102512
 21
368.3299621550248
 31
0.0
  0
LINE
  5
272
  8
0
  6
HIDDEN
 10
454.7039938102512
 20
368.3299621550248
 30
0.0
 11
333.9368431699725
 21
310.7015309559564
 31
0.0
  0
LINE
  5
273
  8
0
  6
HIDDEN
 10
333.9368431699725
 20
310.7015309559564
 30
0.0
 11
194.4253851955845
 21
239.465988231859
 31
0.0
  0
LINE
  5
274
  8
0
  6
HIDDEN
 10
194.4253851955845
 20
239.465988231859
 30
0.0
 11
201.6576385133959
 21
202.1423952167253
 31
0.0
  0
LINE
  5
275
  8
0
  6
HIDDEN
 10
201.6576385133959
 20
202.1423952167253
 30
0.0
 11
315.2797820663637
 21
255.1704704387041
 31
0.0
  0
LINE
  5
276
  8
0
  6
HIDDEN
 10
315.2797820663637
 20
255.1704704387041
 30
0.0
 11
335.1226973788666
 21
240.7820057808229
 31
0.0
  0
LINE
  5
277
  8
0
 10
142.293539883247
 20
171.5858780123785
 30
0.0
 11
150.3276713339546
 21
191.1429379925582
 31
0.0
  0
LINE
  5
278
  8
0
 10
150.3276713339546
 20
191.1429379925582
 30
0.0
 11
225.451267701824
 21
221.8168758738153
 31
0.0
  0
LINE
  5
279
  8
0
 10
136.2127395002585
 20
103.9771017357783
 30
0.0
 11
129.8289342857451
 21
137.3693136270791
 31
0.0
  0
LINE
  5
27A
  8
0
 10
129.8289342857451
 20
137.3693136270791
 30
0.0
 11
142.293539883247
 21
171.5858780123785
 31
0.0
  0
LINE
  5
27B
  8
0
 10
548.9256573030721
 20
-155.9622224618187
 30
0.0
 11
533.4039108246864
 21
-155.9622224618187
 31
0.0
  0
LINE
  5
27C
  8
0
 10
533.4039108246864
 20
-155.9622224618187
 30
0.0
 11
527.369186110152
 21
-161.996947176353
 31
0.0
  0
LINE
  5
27D
  8
0
 10
220.4406316461462
 20
225.7115448061663
 30
0.0
 11
197.5195670679238
 21
215.1718490901396
 31
0.0
  0
LINE
  5
27E
  8
0
 10
197.5195670679238
 20
215.1718490901396
 30
0.0
 11
191.7323933088624
 21
218.2914974446336
 31
0.0
  0
LINE
  5
27F
  8
0
 10
191.7323933088624
 20
218.2914974446336
 30
0.0
 11
153.5136218254446
 21
204.0271685602714
 31
0.0
  0
LINE
  5
280
  8
0
 10
153.5136218254446
 20
204.0271685602714
 30
0.0
 11
134.3440490420296
 21
177.2401733109193
 31
0.0
  0
LINE
  5
281
  8
0
 10
134.3440490420296
 20
177.2401733109193
 30
0.0
 11
123.7324752211746
 21
175.7697782868262
 31
0.0
  0
LINE
  5
282
  8
0
 10
466.9618217813107
 20
312.8855450662381
 30
0.0
 11
466.9618217813107
 21
322.8855450662381
 31
0.0
  0
LINE
  5
283
  8
0
 10
466.9618217813107
 20
322.8855450662381
 30
0.0
 11
476.9618217813107
 21
322.8855450662381
 31
0.0
  0
LINE
  5
284
  8
0
 10
476.9618217813107
 20
322.8855450662381
 30
0.0
 11
476.9618217813107
 21
312.8855450662381
 31
0.0
  0
LINE
  5
285
  8
0
 10
476.9618217813107
 20
312.8855450662381
 30
0.0
 11
466.9618217813107
 21
312.8855450662381
 31
0.0
  0
LINE
  5
286
  8
0
 10
554.5692718631963
 20
271.8958743625577
 30
0.0
 11
554.5692718631963
 21
281.8958743625577
 31
0.0
  0
LINE
  5
287
  8
0
 10
554.5692718631963
 20
281.8958743625577
 30
0.0
 11
564.5692718631963
 21
281.8958743625577
 31
0.0
  0
LINE
  5
288
  8
0
 10
564.5692718631963
 20
281.8958743625577
 30
0.0
 11
564.5692718631963
 21
271.8958743625577
 31
0.0
  0
LINE
  5
289
  8
0
 10
564.5692718631963
 20
271.8958743625577
 30
0.0
 11
554.5692718631963
 21
271.8958743625577
 31
0.0
  0
LINE
  5
28A
  8
0
 10
488.5606106292041
 20
316.9539605092393
 30
0.0
 11
488.5606106292041
 21
326.9539605092393
 31
0.0
  0
LINE
  5
28B
  8
0
 10
488.5606106292041
 20
326.9539605092393
 30
0.0
 11
498.5606106292041
 21
326.9539605092393
 31
0.0
  0
LINE
  5
28C
  8
0
 10
498.5606106292041
 20
326.9539605092393
 30
0.0
 11
498.5606106292041
 21
316.9539605092393
 31
0.0
  0
LINE
  5
28D
  8
0
 10
498.5606106292041
 20
316.9539605092393
 30
0.0
 11
488.5606106292041
 21
316.9539605092393
 31
0.0
  0
LINE
  5
28E
  8
0
 10
439.5327804471743
 20
377.7377377148649
 30
0.0
 11
445.0103562267136
 21
383.2153134944043
 31
0.0
  0
LINE
  5
28F
  8
0
 10
445.0103562267136
 20
383.2153134944043
 30
0.0
 11
539.6770853568639
 21
324.6708165162458
 31
0.0
  0
LINE
  5
290
  8
0
 10
443.9804336052433
 20
376.5285366234416
 30
0.0
 11
445.5996596385661
 21
378.1477626567644
 31
0.0
  0
LINE
  5
291
  8
0
 10
445.5996596385661
 20
378.1477626567644
 30
0.0
 11
537.5731925845163
 21
321.268811930349
 31
0.0
  0
LINE
  5
292
  8
0
 10
88.42821826183376
 20
-90.34223783073617
 30
0.0
 11
320.1473186110725
 21
-90.34223783073617
 31
0.0
  0
LINE
  5
293
  8
0
 10
320.1473186110725
 20
-90.34223783073617
 30
0.0
 11
379.5551137216648
 21
-141.3698029064044
 31
0.0
  0
LINE
  5
294
  8
0
 10
379.5551137216648
 20
-141.3698029064044
 30
0.0
 11
377.5461544667173
 21
-166.0513023243317
 31
0.0
  0
LINE
  5
295
  8
0
 10
377.5461544667173
 20
-166.0513023243317
 30
0.0
 11
324.7392254795241
 21
-170.0692208342269
 31
0.0
  0
LINE
  5
296
  8
0
 10
324.7392254795241
 20
-170.0692208342269
 30
0.0
 11
197.3138098799923
 21
-172.6521684477309
 31
0.0
  0
LINE
  5
297
  8
0
 10
197.3138098799923
 20
-172.6521684477309
 30
0.0
 11
197.3138098799923
 21
-156.0065060495939
 31
0.0
  0
LINE
  5
298
  8
0
 10
197.3138098799923
 20
-156.0065060495939
 30
0.0
 11
113.7985037100291
 21
-152.275581718977
 31
0.0
  0
LINE
  5
299
  8
0
 10
113.7985037100291
 20
-152.275581718977
 30
0.0
 11
88.42821826183376
 21
-90.34223783073617
 31
0.0
  0
LINE
  5
29A
  8
0
 10
548.9256573030721
 20
-155.9622224618187
 30
0.0
 11
554.9603820176064
 21
-149.9274977472842
 31
0.0
  0
LINE
  5
29B
  8
0
 10
554.9603820176064
 20
-149.9274977472842
 30
0.0
 11
666.2984296781744
 21
-149.9274977472842
 31
0.0
  0
LINE
  5
29C
  8
0
 10
666.2984296781744
 20
-149.9274977472842
 30
0.0
 11
716.8094052311421
 21
-131.8311705533727
 31
0.0
  0
LINE
  5
29D
  8
0
 10
716.8094052311421
 20
-131.8311705533727
 30
0.0
 11
716.8094052311421
 21
-91.93897963369932
 31
0.0
  0
LINE
  5
29E
  8
0
 10
716.8094052311421
 20
-91.93897963369932
 30
0.0
 11
633.0071048819003
 21
-115.4725023345138
 31
0.0
  0
LINE
  5
29F
  8
0
 10
633.0071048819003
 20
-115.4725023345138
 30
0.0
 11
491.5136141032562
 21
-116.0778784918369
 31
0.0
  0
LINE
  5
2A0
  8
0
 10
491.5136141032562
 20
-116.0778784918369
 30
0.0
 11
430.9578422755507
 21
-161.996947176353
 31
0.0
  0
LINE
  5
2A1
  8
0
 10
430.9578422755507
 20
-161.996947176353
 30
0.0
 11
527.369186110152
 21
-161.996947176353
 31
0.0
  0
LINE
  5
2A2
  8
0
 10
716.8094052311421
 20
-131.8311705533727
 30
0.0
 11
635.3016233452295
 21
-131.8311705533727
 31
0.0
  0
LINE
  5
2A3
  8
0
 10
635.3016233452295
 20
-131.8311705533727
 30
0.0
 11
635.3016233452295
 21
-125.4559536034311
 31
0.0
  0
LINE
  5
2A4
  8
0
 10
635.3016233452295
 20
-125.4559536034311
 30
0.0
 11
716.8094052311421
 21
-125.4559536034311
 31
0.0
  0
LINE
  5
2A5
  8
0
 10
436.7043533224281
 20
380.5661648396111
 30
0.0
 11
444.4210528148611
 21
388.2828643320441
 31
0.0
  0
LINE
  5
2A6
  8
0
 10
444.4210528148611
 20
388.2828643320441
 30
0.0
 11
576.9773503515308
 21
306.3064209513695
 31
0.0
  0
LINE
  5
2A7
  8
0
 10
319.4131371568988
 20
264.9339821752424
 30
0.0
 11
315.1060003430049
 21
269.2411189891362
 31
0.0
  0
LINE
  5
2A8
  8
0
 10
315.1060003430049
 20
269.2411189891362
 30
0.0
 11
220.4406316461462
 21
225.7115448061663
 31
0.0
  0
LINE
  5
2A9
  8
0
 10
220.4406316461462
 20
225.7115448061663
 30
0.0
 11
207.4275799956584
 21
233.0428415106665
 31
0.0
  0
LINE
  5
2AA
  8
0
 10
207.4275799956584
 20
233.0428415106665
 30
0.0
 11
149.510336030107
 21
214.1647524965785
 31
0.0
  0
LINE
  5
2AB
  8
0
 10
149.510336030107
 20
214.1647524965785
 30
0.0
 11
126.1418277845125
 21
185.1603099093997
 31
0.0
  0
LINE
  5
2AC
  8
0
 10
126.1418277845125
 20
185.1603099093997
 30
0.0
 11
101.9943692640651
 21
91.04478846537853
 31
0.0
  0
LINE
  5
2AD
  8
0
 10
101.9943692640651
 20
91.04478846537853
 30
0.0
 11
114.1368294308936
 21
93.24417747672857
 31
0.0
  0
LINE
  5
2AE
  8
0
 10
114.1368294308936
 20
93.24417747672857
 30
0.0
 11
124.0340799819688
 21
93.24417747672857
 31
0.0
  0
LINE
  5
2AF
  8
0
 10
124.0340799819688
 20
93.24417747672857
 30
0.0
 11
107.0804563528121
 21
76.29055384757191
 31
0.0
  0
LINE
  5
2B0
  8
0
 10
107.0804563528121
 20
76.29055384757191
 30
0.0
 11
123.3009503115188
 21
63.91899065872786
 31
0.0
  0
LINE
  5
2B1
  8
0
 10
123.3009503115188
 20
63.91899065872786
 30
0.0
 11
139.4298030614192
 21
83.16364450804082
 31
0.0
  0
LINE
  5
2B2
  8
0
 10
139.4298030614192
 20
83.16364450804082
 30
0.0
 11
134.1146129506566
 21
57.32082362467764
 31
0.0
  0
LINE
  5
2B3
  8
0
 10
134.1146129506566
 20
57.32082362467764
 30
0.0
 11
177.3692635072076
 21
34.59380384072708
 31
0.0
  0
LINE
  5
2B4
  8
0
 10
177.3692635072076
 20
34.59380384072708
 30
0.0
 11
199.8213596647395
 21
57.04589999825885
 31
0.0
  0
LINE
  5
2B5
  8
0
 10
199.8213596647395
 20
57.04589999825885
 30
0.0
 11
186.1668195526079
 21
110.106159897079
 31
0.0
  0
LINE
  5
2B6
  8
0
 10
186.1668195526079
 20
110.106159897079
 30
0.0
 11
189.0993382344079
 21
164.5410379279929
 31
0.0
  0
LINE
  5
2B7
  8
0
 10
189.0993382344079
 20
164.5410379279929
 30
0.0
 11
319.4131371568988
 21
264.9339821752424
 31
0.0
  0
LINE
  5
2B8
  8
0
 10
148.7198687363717
 20
141.6855263186027
 30
0.0
 11
148.7198687363717
 21
130.9588318738996
 31
0.0
  0
LINE
  5
2B9
  8
0
 10
148.7198687363717
 20
130.9588318738996
 30
0.0
 11
170.9079627247301
 21
130.9588318738996
 31
0.0
  0
LINE
  5
2BA
  8
0
 10
170.9079627247301
 20
130.9588318738996
 30
0.0
 11
170.9079627247301
 21
141.6855263186027
 31
0.0
  0
LINE
  5
2BB
  8
0
 10
170.9079627247301
 20
141.6855263186027
 30
0.0
 11
148.7198687363717
 21
141.6855263186027
 31
0.0
  0
ENDSEC
  0
EOF
